<svg width="137" height="26" viewBox="0 0 137 26" fill="none" xmlns="http://www.w3.org/2000/svg">
<g clip-path="url(#clip0_25_2798)">
<g clip-path="url(#clip1_25_2798)">
<mask id="path-1-inside-1_25_2798" fill="white">
<path d="M0 0H137V26H0V0Z"/>
</mask>
<path d="M6.36601 15.4824H3.96367V21H1.61992V6.78125H6.13164C6.86731 6.78776 7.5444 6.88216 8.16289 7.06445C8.78138 7.24674 9.31523 7.51367 9.76445 7.86523C10.2072 8.22331 10.5522 8.66927 10.7996 9.20312C11.047 9.73047 11.1707 10.349 11.1707 11.0586C11.1707 11.5469 11.1056 11.9896 10.9754 12.3867C10.8517 12.7839 10.6759 13.1419 10.448 13.4609C10.2202 13.7799 9.94674 14.0599 9.62773 14.3008C9.30872 14.5417 8.9539 14.75 8.56328 14.9258L11.6004 20.873V21H9.09062L6.36601 15.4824ZM3.96367 13.5684H6.16093C6.5776 13.5618 6.95195 13.5 7.28398 13.3828C7.62252 13.2591 7.90898 13.0833 8.14336 12.8555C8.35169 12.6602 8.51445 12.4193 8.63164 12.1328C8.74883 11.8464 8.80742 11.5208 8.80742 11.1562C8.80742 10.7461 8.74231 10.388 8.61211 10.082C8.48841 9.76953 8.30286 9.50911 8.05547 9.30078C7.8276 9.10547 7.55091 8.95898 7.22539 8.86133C6.89987 8.75716 6.53528 8.70182 6.13164 8.69531H3.96367V13.5684ZM22.4217 14.623H16.5428V19.0664H23.408V21H14.1893V6.78125H23.3592V8.72461H16.5428V12.7285H22.4217V14.623ZM29.0536 15.5801V21H26.7098V6.78125H31.4657C32.1818 6.78776 32.8394 6.89518 33.4384 7.10352C34.0438 7.31185 34.5647 7.60807 35.0009 7.99219C35.4371 8.3763 35.7756 8.8418 36.0165 9.38867C36.2574 9.93555 36.3778 10.5508 36.3778 11.2344C36.3778 11.8919 36.2574 12.4876 36.0165 13.0215C35.7756 13.5488 35.4371 14.0013 35.0009 14.3789C34.5647 14.763 34.0438 15.0592 33.4384 15.2676C32.8394 15.4759 32.1818 15.5801 31.4657 15.5801H29.0536ZM29.0536 13.666H31.4657C31.8628 13.6595 32.2177 13.5977 32.5302 13.4805C32.8492 13.3568 33.1193 13.1875 33.3407 12.9727C33.5621 12.7578 33.7281 12.5039 33.8387 12.2109C33.9559 11.918 34.0145 11.599 34.0145 11.2539C34.0145 10.8763 33.9559 10.5345 33.8387 10.2285C33.7281 9.91602 33.5621 9.64583 33.3407 9.41797C33.1193 9.1901 32.8492 9.01432 32.5302 8.89062C32.2177 8.76693 31.8628 8.70182 31.4657 8.69531H29.0536V13.666ZM41.5644 19.0664H48.3515V21H39.2109V6.78125H41.5644V19.0664ZM51.8291 6.78125H60.208V8.72461H57.1709V19.0664H60.208V21H51.8291V19.0664H54.7978V8.72461H51.8291V6.78125ZM73.5488 16.625C73.4837 17.3151 73.321 17.9434 73.0605 18.5098C72.8001 19.0697 72.4583 19.5482 72.0352 19.9453C71.6055 20.349 71.0944 20.6615 70.5019 20.8828C69.916 21.0977 69.265 21.2051 68.5488 21.2051C67.9629 21.2051 67.4225 21.127 66.9277 20.9707C66.4394 20.8079 66.0033 20.5801 65.6191 20.2871C65.248 20.0137 64.9225 19.6849 64.6426 19.3008C64.3691 18.9102 64.138 18.4837 63.9492 18.0215C63.7604 17.5658 63.6172 17.071 63.5195 16.5371C63.4284 16.0033 63.3828 15.4466 63.3828 14.8672V12.9238C63.3828 12.3704 63.4284 11.8366 63.5195 11.3223C63.6107 10.8079 63.7474 10.3229 63.9297 9.86719C64.125 9.35938 64.3756 8.90039 64.6816 8.49023C64.9941 8.07357 65.3522 7.71875 65.7559 7.42578C66.14 7.15885 66.5631 6.95052 67.0254 6.80078C67.4941 6.65104 68.0052 6.57617 68.5586 6.57617C69.3073 6.57617 69.9746 6.68685 70.5605 6.9082C71.153 7.12956 71.6575 7.44206 72.0742 7.8457C72.4974 8.25586 72.8294 8.75065 73.0703 9.33008C73.3177 9.90951 73.4772 10.554 73.5488 11.2637H71.2051C71.166 10.8405 71.0846 10.4596 70.9609 10.1211C70.8437 9.77604 70.681 9.48307 70.4727 9.24219C70.2578 9.0013 69.9941 8.81901 69.6816 8.69531C69.3691 8.5651 68.9948 8.5 68.5586 8.5C68.2526 8.5 67.9759 8.54232 67.7285 8.62695C67.4876 8.71159 67.2728 8.83203 67.084 8.98828C66.8236 9.17708 66.6055 9.42448 66.4297 9.73047C66.2604 10.0299 66.1204 10.3652 66.0098 10.7363C65.9251 11.0618 65.86 11.4102 65.8144 11.7812C65.7754 12.1458 65.7559 12.5202 65.7559 12.9043V14.8672C65.7559 15.3424 65.7819 15.7884 65.834 16.2051C65.8926 16.6217 65.9805 17.0026 66.0977 17.3477C66.1888 17.6341 66.3027 17.8945 66.4394 18.1289C66.5827 18.3633 66.7519 18.5651 66.9473 18.7344C67.1491 18.9167 67.3802 19.0566 67.6406 19.1543C67.9075 19.2454 68.2103 19.291 68.5488 19.291C68.9525 19.291 69.3105 19.2324 69.623 19.1152C69.9355 18.998 70.2025 18.8255 70.4238 18.5977C70.6387 18.3763 70.8112 18.0996 70.9414 17.7676C71.0716 17.4355 71.1562 17.0547 71.1953 16.625H73.5488ZM79.8291 14.0371C79.8291 13.6725 79.9496 13.3633 80.1905 13.1094C80.4314 12.8555 80.7666 12.7285 81.1963 12.7285C81.6195 12.7285 81.9515 12.8522 82.1924 13.0996C82.4398 13.347 82.5635 13.6595 82.5635 14.0371C82.5635 14.4147 82.4398 14.7272 82.1924 14.9746C81.9515 15.2155 81.6195 15.3359 81.1963 15.3359C80.7666 15.3359 80.4314 15.2122 80.1905 14.9648C79.9496 14.7174 79.8291 14.4082 79.8291 14.0371ZM93.668 15.4824H91.2657V21H88.922V6.78125H93.4337C94.1693 6.78776 94.8464 6.88216 95.4649 7.06445C96.0834 7.24674 96.6173 7.51367 97.0665 7.86523C97.5092 8.22331 97.8542 8.66927 98.1016 9.20312C98.349 9.73047 98.4727 10.349 98.4727 11.0586C98.4727 11.5469 98.4076 11.9896 98.2774 12.3867C98.1537 12.7839 97.9779 13.1419 97.7501 13.4609C97.5222 13.7799 97.2488 14.0599 96.9298 14.3008C96.6108 14.5417 96.2559 14.75 95.8653 14.9258L98.9024 20.873V21H96.3927L93.668 15.4824ZM91.2657 13.5684H93.463C93.8796 13.5618 94.254 13.5 94.586 13.3828C94.9246 13.2591 95.211 13.0833 95.4454 12.8555C95.6537 12.6602 95.8165 12.4193 95.9337 12.1328C96.0509 11.8464 96.1095 11.5208 96.1095 11.1562C96.1095 10.7461 96.0443 10.388 95.9141 10.082C95.7904 9.76953 95.6049 9.50911 95.3575 9.30078C95.1296 9.10547 94.8529 8.95898 94.5274 8.86133C94.2019 8.75716 93.8373 8.70182 93.4337 8.69531H91.2657V13.5684ZM109.724 14.623H103.845V19.0664H110.71V21H101.491V6.78125H110.661V8.72461H103.845V12.7285H109.724V14.623ZM120.74 17.7285H116.277L115.311 21H112.869L117.498 6.78125H119.578L124.129 21H121.697L120.74 17.7285ZM116.873 15.7168H120.164L118.533 10.0918L116.873 15.7168ZM126.2 21V6.78125H129.716C130.328 6.78125 130.904 6.85286 131.445 6.99609C131.985 7.13281 132.476 7.32487 132.919 7.57227C133.401 7.82617 133.827 8.14518 134.198 8.5293C134.576 8.91341 134.892 9.3431 135.146 9.81836C135.406 10.3132 135.608 10.8568 135.751 11.4492C135.894 12.0417 135.966 12.6732 135.966 13.3438V14.457C135.966 15.1016 135.898 15.7135 135.761 16.293C135.631 16.8659 135.442 17.39 135.195 17.8652C134.954 18.3275 134.661 18.7474 134.316 19.125C133.977 19.5026 133.599 19.8249 133.183 20.0918C132.714 20.3848 132.193 20.6094 131.62 20.7656C131.054 20.9219 130.445 21 129.794 21H126.2ZM128.573 8.69531V19.0957H129.794C130.211 19.0957 130.592 19.0469 130.937 18.9492C131.288 18.8451 131.604 18.6986 131.884 18.5098C132.17 18.3145 132.424 18.0703 132.646 17.7773C132.874 17.4779 133.059 17.1361 133.202 16.752C133.326 16.4264 133.42 16.0716 133.486 15.6875C133.551 15.3034 133.583 14.8932 133.583 14.457V13.3242C133.583 12.8945 133.551 12.4876 133.486 12.1035C133.42 11.7194 133.326 11.3646 133.202 11.0391C133.046 10.6419 132.838 10.2839 132.577 9.96484C132.317 9.63932 132.008 9.37565 131.65 9.17383C131.389 9.02409 131.096 8.91016 130.771 8.83203C130.445 8.7474 130.094 8.70182 129.716 8.69531H128.573Z" fill="black"/>
</g>
<path d="M0 0V1H137V0V-1H0V0ZM137 26V25H0V26V27H137V26Z" fill="black" mask="url(#path-1-inside-1_25_2798)"/>
</g>
<defs>
<clipPath id="clip0_25_2798">
<rect width="137" height="26" fill="white"/>
</clipPath>
<clipPath id="clip1_25_2798">
<path d="M0 0H137V26H0V0Z" fill="white"/>
</clipPath>
</defs>
</svg>
